<svg width="15" height="15"  viewBox="0 0 15 15" xmlns="http://www.w3.org/2000/svg"><path d="m14.14496,8.9388c0.103,-0.49678 0.15469,-0.98071 0.15469,-1.45152c0,-0.92251 -0.17882,-1.80473 -0.53701,-2.64664c-0.35798,-0.84185 -0.84185,-1.56754 -1.45149,-2.17722c-0.60964,-0.60968 -1.33524,-1.09351 -2.17712,-1.45163c-0.84208,-0.35788 -1.72403,-0.53698 -2.64668,-0.53698c-0.47092,0 -0.95481,0.05165 -1.45156,0.15489c-0.67092,-0.5161 -1.42573,-0.77416 -2.26439,-0.77416c-1.02569,0 -1.90139,0.36283 -2.62719,1.08849c-0.72586,0.72586 -1.08866,1.60157 -1.08866,2.62729c0,0.83866 0.25807,1.59347 0.77409,2.26439c-0.10317,0.49671 -0.15483,0.98064 -0.15483,1.45156c0,0.92241 0.17896,1.80459 0.53698,2.64658c0.35798,0.84185 0.84185,1.56758 1.45156,2.17735c0.60964,0.60961 1.33544,1.0933 2.17729,1.45146c0.84192,0.35805 1.72413,0.53704 2.64664,0.53704c0.47088,0 0.95478,-0.05172 1.4518,-0.15496c0.67075,0.51616 1.42549,0.77437 2.26422,0.77437c1.02558,0 1.90153,-0.36303 2.62692,-1.08866c0.72586,-0.72586 1.08866,-1.60157 1.08866,-2.62739c-0.00017,-0.83853 -0.25813,-1.59323 -0.77392,-2.26426zm-3.05815,1.43698c-0.21272,0.37744 -0.4983,0.67899 -0.85625,0.90482c-0.35815,0.22583 -0.75325,0.39818 -1.18543,0.51766c-0.43218,0.11924 -0.88371,0.17906 -1.35476,0.17906c-1.09012,0 -2.0287,-0.21133 -2.81581,-0.63398c-0.78711,-0.42269 -1.18061,-0.93048 -1.18061,-1.52412c0,-0.2902 0.08229,-0.53189 0.24681,-0.72559c0.16449,-0.1936 0.40801,-0.2902 0.73058,-0.2902c0.18709,0 0.3612,0.05159 0.52247,0.15469c0.16127,0.10324 0.30962,0.2276 0.44516,0.37279c0.13554,0.14523 0.2822,0.2902 0.44028,0.43543c0.15798,0.14523 0.36764,0.26932 0.62889,0.37256c0.26132,0.10324 0.55646,0.15496 0.88557,0.15496c0.4193,0 0.75786,-0.08212 1.01616,-0.24658c0.25793,-0.16469 0.38693,-0.37279 0.38693,-0.62425c0,-0.2582 -0.1031,-0.45167 -0.30945,-0.58066c-0.14174,-0.0906 -0.50318,-0.20668 -1.08381,-0.34853l-1.41295,-0.34856c-0.38703,-0.09022 -0.71929,-0.19496 -0.99674,-0.31423c-0.27745,-0.11944 -0.53552,-0.27569 -0.77416,-0.46939c-0.23858,-0.19346 -0.41923,-0.43692 -0.54182,-0.73058c-0.12256,-0.29345 -0.18384,-0.63706 -0.18384,-1.03057c0,-0.47098 0.10809,-0.88533 0.32412,-1.24349c0.21604,-0.35809 0.50329,-0.63876 0.8612,-0.84195c0.35798,-0.20323 0.74345,-0.3548 1.15641,-0.45478c0.41279,-0.10002 0.83859,-0.15001 1.27728,-0.15001c0.61944,0 1.20624,0.07423 1.76114,0.22258c0.55477,0.14835 1.01281,0.36608 1.37398,0.65316c0.3612,0.28718 0.54179,0.60812 0.54179,0.96288c0,0.2902 -0.09175,0.53867 -0.27583,0.74505c-0.1835,0.20634 -0.42709,0.30958 -0.73041,0.30958c-0.16771,0 -0.32246,-0.03874 -0.46441,-0.11615c-0.14188,-0.07738 -0.27081,-0.17089 -0.38717,-0.28057c-0.11612,-0.10961 -0.23885,-0.2177 -0.36781,-0.32412c-0.129,-0.10643 -0.30321,-0.19834 -0.5223,-0.27576c-0.2196,-0.07741 -0.4678,-0.11615 -0.74518,-0.11615c-0.92889,0 -1.39343,0.2482 -1.39343,0.74505c0,0.10961 0.02423,0.20641 0.07257,0.29026c0.04837,0.08385 0.10168,0.15161 0.15964,0.20323c0.05792,0.05169 0.15472,0.10324 0.29026,0.15489c0.13554,0.05169 0.24844,0.08887 0.33873,0.11131c0.09026,0.02257 0.23231,0.05643 0.42577,0.10155l1.00643,0.2322c0.31606,0.07104 0.59815,0.14527 0.84669,0.22258c0.24847,0.07755 0.51454,0.18713 0.79836,0.32911c0.28382,0.14191 0.51928,0.29989 0.70627,0.4741c0.18719,0.17435 0.34358,0.39506 0.46953,0.66279c0.12588,0.26779 0.18858,0.56297 0.18858,0.88543c-0.00003,0.47092 -0.10629,0.89516 -0.31945,1.2725l0.00002,0z"/></svg>